# xmcd
#
# Track frame offsets:
#	150
#	14769
#	30939
#	43548
#	63447
#	76811
#	84385
#	100460
#	121087
#	137979
#	155999
#	173508
#	200336
#
# Disc length: 2978 seconds
#
# Revision: 1
# Processed by: cddbd v1.4PL0 Copyright (c) Steve Scherf et al.
# Submitted via: audiograbber 1.81.02
#
DISCID=a30ba00d
DTITLE=Plankton - Lieblingslieder
DYEAR=2002
DGENRE=
TTITLE0=Supersummersune
TTITLE1=Lieblingslied
TTITLE2=Zucker
TTITLE3=Tagträumer
TTITLE4=Autoradiosong
TTITLE5=Uf de Mond
TTITLE6=Happy End
TTITLE7=Immer da
TTITLE8=Lieber Unsichtbar
TTITLE9=Sand it Auge
TTITLE10=November
TTITLE11=Mitternacht
TTITLE12=Ferie am Meer
EXTD=
EXTT0=
EXTT1=
EXTT2=
EXTT3=
EXTT4=
EXTT5=
EXTT6=
EXTT7=
EXTT8=
EXTT9=
EXTT10=
EXTT11=
EXTT12=
PLAYORDER=
